<svg xmlns="http://www.w3.org/2000/svg" aria-hidden="true" overflow="hidden" style="position:absolute;width:0;height:0">
  <defs>
    <symbol id="icon-arrow" viewBox="0 0 38 32">
      <path class="var(--color1, #011c44)" d="M.624 17.218a2.134 2.134 0 0 1 0-3.017L14.2.625a2.134 2.134 0 0 1 3.017 3.017L5.149 15.71l12.068 12.068a2.134 2.134 0 0 1-3.017 3.017L.624 17.219zm37.268.625H2.133v-4.267h35.759v4.267z"/>
    </symbol>
    <symbol id="icon-facebook" viewBox="0 0 32 32">
      <path d="M23.987 2.128a37.26 37.26 0 0 0-4.049-.208c-4.484 0-7.271 2.856-7.271 7.453v3.121H8.9a.665.665 0 0 0-.666.666v5.133a.665.665 0 0 0 .666.666h3.767v10.293a.665.665 0 0 0 .666.666h5.304a.665.665 0 0 0 .666-.666V18.959h3.755a.667.667 0 0 0 .661-.581l.663-5.133c.012-.094.004-.19-.023-.281s-.074-.175-.137-.246a.65.65 0 0 0-.501-.227h-4.417V9.879c0-1.293.26-1.833 1.877-1.833H23.9a.665.665 0 0 0 .666-.666V2.787a.667.667 0 0 0-.581-.661zm-.754 4.587-2.053.001c-2.876 0-3.209 1.808-3.209 3.167v3.28a.665.665 0 0 0 .666.667h4.328l-.492 3.8h-3.835a.665.665 0 0 0-.666.666v10.291h-3.971V18.296a.665.665 0 0 0-.666-.666H9.57v-3.8h3.765a.665.665 0 0 0 .666-.666V9.375c0-3.832 2.22-6.12 5.937-6.12 1.345 0 2.56.073 3.296.137v3.324z"/>
    </symbol>
    <symbol id="icon-instagram" viewBox="0 0 32 32">
      <path d="M16 10.25a5.746 5.746 0 0 0-5.312 3.55 5.75 5.75 0 1 0 5.313-3.55zm0 10a4.248 4.248 0 0 1-3.005-7.255 4.253 4.253 0 0 1 6.539.644A4.25 4.25 0 0 1 20.25 16 4.265 4.265 0 0 1 16 20.25zm5.5-16.5h-11a6.75 6.75 0 0 0-6.75 6.75v11a6.75 6.75 0 0 0 6.75 6.75h11a6.75 6.75 0 0 0 6.75-6.75v-11a6.75 6.75 0 0 0-6.75-6.75zm5.25 17.75a5.247 5.247 0 0 1-5.25 5.25h-11a5.247 5.247 0 0 1-5.25-5.25v-11a5.247 5.247 0 0 1 5.25-5.25h11a5.247 5.247 0 0 1 5.25 5.25v11zm-3-12a1.243 1.243 0 0 1-.772 1.154 1.248 1.248 0 0 1-1.704-.911 1.256 1.256 0 0 1 .531-1.283 1.253 1.253 0 0 1 1.578.155c.234.234.366.552.366.884z"/>
    </symbol>
    <symbol id="icon-telephone" viewBox="0 0 32 32">
      <path d="m27.654 22.957-.173-.216c-1.372-1.735-2.519-2.637-3.503-2.756-.851-.116-1.673.472-2.548 1.077l-.935.584a2.054 2.054 0 0 1-.327.132c-.547.155-1.927.245-2.708-.469-.909-.832-2.32-2.355-3.417-3.685-1.048-1.377-2.2-3.095-2.801-4.176-.508-.916-.083-2.197.201-2.672.056-.093.129-.185.211-.276l.824-.761c.012-.012.017-.027.028-.037.008-.008.021-.005.031-.012.744-.628 1.513-1.275 1.619-2.105.124-.976-.483-2.296-1.857-4.029l-.168-.216C11.28 2.249 9.994.6 8.146.872c-.727.108-1.376.356-2.045.776-.007.004-.011.012-.016.016s-.012.004-.017.008l-.932.691c-.009.005-.015.017-.024.025-.007.007-.017.008-.025.015a13.74 13.74 0 0 0-.323.28c-.945.843-2.992 3.289-1.596 7.815.901 2.923 2.76 6.333 5.388 9.883l-.025.021 1.449 1.805.012-.009c2.849 3.371 5.749 5.976 8.407 7.553 1.773 1.053 3.323 1.401 4.597 1.401 1.677 0 2.879-.603 3.481-.995l.379-.253c.043-.029.073-.071.104-.108l.825-.621c.009-.008.015-.019.024-.027.004-.004.011-.003.016-.007.587-.536.993-1.097 1.276-1.763.732-1.705-.579-3.339-1.445-4.42zm.466 4.002c-.22.517-.541.957-1.005 1.384l-1.228.924c-1.112.723-3.489 1.616-6.943-.435-2.657-1.577-5.583-4.244-8.461-7.712l-.779-.984c-2.711-3.595-4.617-7.037-5.517-9.955-1.169-3.793.304-5.828 1.291-6.707.1-.091.2-.175.299-.259l.004-.004.895-.663a4.067 4.067 0 0 1 1.628-.624c1.239-.187 2.247 1.12 2.987 2.069l.173.22C13 6.15 13.148 7.072 13.1 7.448c-.053.417-.688.952-1.248 1.423l-.079.067c-.003.003-.004.007-.007.009l-.012.007-.852.788c-.005.005-.008.012-.013.019s-.016.009-.021.016a3.007 3.007 0 0 0-.337.449c-.479.801-.931 2.457-.217 3.739.623 1.12 1.808 2.889 2.897 4.319 1.139 1.381 2.591 2.949 3.532 3.809.705.644 1.687.86 2.536.86.455 0 .872-.063 1.188-.152.167-.048.339-.117.516-.204.011-.005.016-.015.027-.021.005-.003.013-.001.019-.005l.989-.619c.032-.021.053-.049.08-.076l.012.013c.609-.423 1.304-.919 1.739-.847.385.047 1.26.417 2.799 2.36l.177.223c.749.935 1.776 2.215 1.297 3.333z"/>
    </symbol>
    <symbol id="icon-bottle" viewBox="0 0 32 32">
<path  d="M8.739 12.049h-8.861c-0.273 0-0.493 0.211-0.493 0.472v2.834c0 0.261 0.22 0.473 0.493 0.473h0.492v10.863c0 0.261 0.22 0.473 0.493 0.473h6.891c0.272 0 0.493-0.211 0.493-0.473v-10.863h0.492c0.272 0 0.492-0.211 0.492-0.473v-2.833c0-0.261-0.22-0.473-0.492-0.473zM3.323 21.023v-0.945h2.953v-0.945h-2.953v-0.945h3.938v6.14h-3.937v-2.361h0.985v-0.945h-0.985zM7.261 17.244h-4.43c-0.272 0-0.492 0.211-0.492 0.473v7.085c0 0.261 0.22 0.473 0.492 0.473h4.431v0.945h-5.908v-10.392h5.907v1.417zM8.247 14.883h-7.878v-1.889h7.878v1.889zM15.262 12.137v-3.453c0-0.269-0.22-0.487-0.493-0.487h-0.492v-2.431h0.985v-0.973h-5.415v0.973h3.446v2.431h-0.493c-0.001 0-0.002 0-0.003 0-0.269 0-0.488 0.218-0.489 0.487v3.453c-1.122 0.226-1.969 1.207-1.969 2.382v12.157c0 0.269 0.22 0.487 0.493 0.487h5.907c0.001 0 0.002 0 0.003 0 0.269 0 0.488-0.218 0.489-0.487v-12.157c0-1.173-0.847-2.156-1.969-2.382zM13.293 9.171h0.985v2.917h-0.985v-2.918zM12.8 13.060h1.969c0.815 0 1.477 0.655 1.477 1.459v0.487h-4.923v-0.487c0-0.804 0.663-1.459 1.477-1.459zM16.247 24.245h-4.923v-0.971h1.969v-0.973h-1.969v-6.322h4.923v8.267zM11.323 26.19v-0.973h4.923v0.973h-4.923zM27.847 11.444h-8.308c-0.256 0.004-0.461 0.212-0.461 0.469 0 0.003 0 0.006 0 0.008v-0 14.767c0 0.263 0.207 0.476 0.461 0.476h8.308c0.255 0 0.461-0.213 0.461-0.476v-14.767c0-0.002 0-0.005 0-0.008 0-0.256-0.206-0.465-0.461-0.469h-0zM27.385 26.211h-7.385v-13.814h7.385v13.813z"></path>
<path  d="M6.769 21.117h-1.231v0.605h1.231v-0.605zM15.385 22.327h-1.231v1.209h1.231v-1.209zM13.847 21.117c1.187 0 2.153-0.949 2.153-2.116s-0.966-2.116-2.153-2.116c-1.188 0-2.154 0.949-2.154 2.116s0.966 2.116 2.153 2.116zM13.847 17.943c0.593 0 1.077 0.475 1.077 1.058s-0.483 1.058-1.077 1.058c-0.593 0-1.077-0.475-1.077-1.058s0.483-1.058 1.077-1.058zM22.539 16.28h2.307c0.891 0 1.616-0.677 1.616-1.511s-0.725-1.511-1.616-1.511h-2.307c-0.891 0-1.615 0.678-1.615 1.511s0.725 1.511 1.615 1.511zM25.539 14.769c0 0.357-0.311 0.647-0.693 0.647h-0.692v-1.295h0.692c0.382 0 0.693 0.291 0.693 0.648zM22.539 14.121h0.692v1.295h-0.692c-0.382 0-0.693-0.291-0.693-0.647s0.311-0.648 0.693-0.648zM22.539 21.117h2.307c0.891 0 1.616-0.813 1.616-1.813s-0.725-1.814-1.616-1.814h-2.307c-0.891 0-1.615 0.813-1.615 1.813s0.725 1.813 1.615 1.813zM25.539 19.304c0 0.428-0.311 0.777-0.693 0.777h-0.692v-1.554h0.692c0.382 0 0.693 0.349 0.693 0.777zM22.539 18.526h0.692v1.555h-0.692c-0.382 0-0.693-0.349-0.693-0.777s0.311-0.777 0.693-0.777zM22.539 25.349h2.307c0.891 0 1.616-0.813 1.616-1.813s-0.725-1.814-1.616-1.814h-2.307c-0.891 0-1.615 0.813-1.615 1.813s0.725 1.814 1.615 1.814zM25.539 23.536c0 0.428-0.311 0.777-0.693 0.777h-0.692v-1.555h0.692c0.382 0 0.693 0.349 0.693 0.777zM22.539 22.759h0.692v1.555h-0.692c-0.382 0-0.693-0.349-0.693-0.777s0.311-0.777 0.693-0.777z"></path>
</symbol>
<symbol id="icon-crown" viewBox="0 0 32 32">
<path  d="M29.687 10.327c-0.237-0.219-0.539-0.371-0.874-0.424l-0.010-0.001c-0.071-0.011-0.153-0.017-0.237-0.017-0.261 0-0.508 0.062-0.726 0.172l0.009-0.004-6.313 3.080c-0.033 0.020-0.072 0.032-0.114 0.032-0.059 0-0.113-0.023-0.153-0.061l0 0c-0.024-0.022-0.043-0.049-0.057-0.079l-0.001-0.002-3.688-7.288c-0.148-0.3-0.365-0.545-0.631-0.724l-0.007-0.004c-0.25-0.166-0.556-0.266-0.886-0.267h-0c-0.33 0.001-0.637 0.101-0.893 0.271l0.006-0.004c-0.273 0.183-0.49 0.428-0.634 0.717l-0.005 0.011-3.687 7.287c-0.015 0.032-0.035 0.059-0.059 0.081l-0 0c-0.023 0.022-0.051 0.039-0.081 0.050l-0.002 0.001c-0.030 0.010-0.062 0.013-0.093 0.010-0.034-0.004-0.064-0.015-0.091-0.031l0.001 0.001-6.313-3.080c-0.211-0.108-0.46-0.172-0.723-0.172-0.081 0-0.16 0.006-0.238 0.018l0.009-0.001c-0.344 0.053-0.646 0.205-0.885 0.424l0.001-0.001c-0.251 0.232-0.44 0.527-0.542 0.86l-0.004 0.014c-0.058 0.183-0.091 0.394-0.091 0.613 0 0.158 0.017 0.312 0.050 0.46l-0.003-0.014 3.189 14.891c0.053 0.251 0.153 0.489 0.293 0.697s0.316 0.383 0.519 0.513c0.267 0.18 0.575 0.275 0.888 0.275 0.16-0.001 0.32-0.025 0.475-0.069 2.671-0.846 5.743-1.333 8.928-1.333 3.169 0 6.226 0.483 9.101 1.378l-0.216-0.058c0.227 0.072 0.465 0.093 0.7 0.060 0.251-0.035 0.477-0.122 0.673-0.25l-0.006 0.004c0.209-0.137 0.384-0.309 0.519-0.509l0.004-0.006c0.141-0.209 0.243-0.447 0.297-0.701l3.175-14.891c0.033-0.139 0.052-0.297 0.052-0.461 0-0.211-0.032-0.416-0.090-0.608l0.004 0.015c-0.103-0.346-0.29-0.641-0.539-0.87l-0.001-0.001zM28.813 11.867l-3.188 14.891c-0.017 0.073-0.057 0.134-0.111 0.178l-0.001 0c-0.040 0.022-0.087 0.035-0.137 0.035-0.022 0-0.044-0.003-0.065-0.007l0.002 0c-2.786-0.881-5.99-1.389-9.313-1.389s-6.527 0.508-9.539 1.45l0.226-0.061c-0.021 0.007-0.044 0.011-0.069 0.011-0.048 0-0.092-0.015-0.128-0.040l0.001 0c-0.030-0.020-0.055-0.046-0.074-0.075l-0.001-0.001c-0.019-0.029-0.034-0.063-0.041-0.1l-0-0.002-3.187-14.891c-0.003-0.016-0.005-0.035-0.005-0.054 0-0.068 0.021-0.13 0.057-0.182l-0.001 0.001c0.023-0.032 0.053-0.058 0.087-0.077l0.001-0.001c0.032-0.018 0.069-0.029 0.109-0.030h0l0.1 0.027 6.325 3.093c0.208 0.106 0.453 0.169 0.713 0.169 0.198 0 0.388-0.036 0.563-0.102l-0.011 0.004c0.43-0.168 0.771-0.484 0.967-0.884l0.005-0.011 3.687-7.288c0.020-0.043 0.049-0.079 0.086-0.105l0.001-0.001c0.035-0.024 0.078-0.039 0.125-0.039s0.090 0.014 0.126 0.039l-0.001-0c0.038 0.026 0.068 0.062 0.087 0.104l0.001 0.002 3.687 7.287c0.211 0.422 0.558 0.741 0.973 0.895s0.867 0.128 1.265-0.069l6.325-3.093c0.030-0.015 0.065-0.024 0.103-0.024 0.062 0 0.118 0.025 0.159 0.064l-0-0c0.037 0.033 0.064 0.075 0.079 0.123l0.001 0.002c0.009 0.027 0.014 0.058 0.014 0.091 0 0.021-0.002 0.042-0.006 0.062l0-0.002zM20.75 22.315c-0.021 0.207-0.111 0.39-0.247 0.527l0-0c-0.129 0.13-0.306 0.211-0.502 0.215h-0.076c-1.178-0.138-2.542-0.217-3.925-0.217s-2.747 0.079-4.089 0.232l0.164-0.015c-0.023 0.003-0.050 0.004-0.078 0.004-0.181 0-0.347-0.069-0.472-0.181l0.001 0.001c-0.153-0.139-0.255-0.332-0.276-0.549l-0-0.003c-0.002-0.023-0.003-0.049-0.003-0.076 0-0.199 0.065-0.383 0.174-0.532l-0.002 0.002c0.118-0.162 0.296-0.274 0.501-0.302l0.004-0c1.223-0.151 2.639-0.237 4.075-0.237s2.852 0.086 4.243 0.254l-0.168-0.016c0.196 0.024 0.375 0.131 0.501 0.297s0.188 0.38 0.173 0.596z"></path>
</symbol>
<symbol id="icon-materials" viewBox="0 0 32 32">
<path  d="M16.061 1.4c-1.050 0-2.031 0.478-2.867 1.261s-1.551 1.873-2.148 3.195c-0.125 0.277-0.244 0.565-0.358 0.861-0.219-0.038-0.536-0.081-0.856-0.114l-0.071-0.006c-0.301-0.033-0.667-0.057-1.037-0.066l-0.018-0c-1.027-0.025-1.965 0.080-2.787 0.329-1.096 0.333-2 0.943-2.525 1.852s-0.601 1.998-0.341 3.113c0.26 1.115 0.847 2.28 1.693 3.457 0.177 0.247 0.367 0.494 0.567 0.742-0.169 0.206-0.355 0.447-0.534 0.694l-0.033 0.047c-0.846 1.177-1.433 2.342-1.693 3.457s-0.183 2.204 0.341 3.113c0.525 0.909 1.43 1.519 2.526 1.851s2.398 0.407 3.84 0.263c0.303-0.030 0.611-0.071 0.926-0.12 0.111 0.291 0.231 0.579 0.359 0.863 0.597 1.321 1.312 2.411 2.148 3.195s1.817 1.261 2.867 1.261 2.031-0.479 2.867-1.261c0.835-0.783 1.551-1.873 2.147-3.195 0.129-0.284 0.248-0.572 0.36-0.863 0.313 0.049 0.622 0.090 0.924 0.12 1.443 0.144 2.745 0.070 3.841-0.263 1.097-0.332 2.001-0.943 2.526-1.852s0.601-1.997 0.341-3.113c-0.26-1.115-0.847-2.28-1.693-3.457-0.212-0.294-0.398-0.536-0.59-0.772l0.024 0.030c0.196-0.242 0.385-0.489 0.567-0.742 0.847-1.177 1.433-2.342 1.693-3.457s0.184-2.204-0.341-3.113c-0.525-0.909-1.43-1.52-2.525-1.852-0.822-0.249-1.76-0.353-2.787-0.329-0.387 0.010-0.753 0.034-1.115 0.072l0.060-0.005c-0.302 0.030-0.611 0.071-0.926 0.12-0.152-0.401-0.272-0.685-0.4-0.965l0.042 0.103c-0.597-1.321-1.312-2.412-2.148-3.195s-1.817-1.261-2.867-1.261zM16.061 2.567c0.7 0 1.387 0.308 2.068 0.946 0.68 0.638 1.331 1.603 1.881 2.823 0.089 0.199 0.175 0.4 0.255 0.603-1.339 0.298-2.756 0.755-4.205 1.365-1.449-0.61-2.867-1.067-4.205-1.364 0.083-0.207 0.168-0.409 0.255-0.603 0.551-1.22 1.201-2.185 1.882-2.823s1.367-0.945 2.068-0.945zM8.337 7.696c0.017-0 0.038-0 0.059-0 0.44 0 0.875 0.023 1.304 0.067l-0.054-0.005c0.213 0.021 0.431 0.048 0.652 0.080-0.412 1.309-0.725 2.764-0.922 4.324-1.253 0.95-2.357 1.95-3.284 2.96-0.111-0.138-0.241-0.309-0.367-0.482l-0.029-0.041c-0.781-1.087-1.292-2.133-1.504-3.041s-0.135-1.657 0.215-2.263c0.35-0.607 0.96-1.047 1.853-1.318 0.586-0.178 1.287-0.273 2.077-0.28zM23.785 7.696c0.789 0.007 1.491 0.103 2.077 0.281 0.893 0.271 1.503 0.711 1.853 1.318s0.427 1.355 0.215 2.263c-0.212 0.909-0.723 1.955-1.504 3.041-0.127 0.177-0.26 0.352-0.395 0.524-0.927-1.011-2.031-2.010-3.283-2.96-0.196-1.56-0.51-3.016-0.921-4.324 0.22-0.033 0.438-0.060 0.651-0.081 0.376-0.040 0.811-0.063 1.252-0.063 0.020 0 0.040 0 0.059 0h-0.003zM20.665 8.049c0.291 0.874 0.555 1.941 0.741 3.035l0.019 0.134c-1.102-0.757-2.375-1.503-3.699-2.16l-0.185-0.083c0.855-0.336 1.899-0.655 2.972-0.897l0.152-0.029zM11.458 8.049c0.99 0.213 2.040 0.523 3.123 0.927-1.509 0.739-2.781 1.485-3.992 2.312l0.109-0.071c0.205-1.227 0.469-2.294 0.805-3.328l-0.045 0.16zM16.061 9.577c1.16 0.514 2.104 1.003 3.017 1.538l-0.141-0.076c0.963 0.555 1.867 1.147 2.705 1.761 0.113 1.033 0.173 2.112 0.173 3.223 0 1.11-0.061 2.189-0.173 3.221-0.766 0.568-1.649 1.149-2.563 1.684l-0.142 0.077c-0.773 0.459-1.717 0.948-2.689 1.386l-0.189 0.076c-1.16-0.514-2.105-1.003-3.018-1.538l0.141 0.076c-1.055-0.611-1.938-1.192-2.786-1.818l0.082 0.058c-0.11-0.962-0.173-2.078-0.173-3.208 0-0.005 0-0.010 0-0.016v0.001c0-1.111 0.060-2.19 0.173-3.223 0.766-0.568 1.649-1.15 2.563-1.684l0.141-0.076c0.772-0.459 1.716-0.947 2.688-1.385l0.188-0.076zM16.14 11.335l-3.344 2.064 3.344 2.063 3.343-2.063-3.343-2.064zM9.217 13.781c-0.050 0.671-0.079 1.453-0.079 2.242s0.029 1.571 0.085 2.346l-0.006-0.104c-0.859-0.708-1.631-1.441-2.348-2.226l-0.016-0.017c0.733-0.801 1.505-1.534 2.325-2.211l0.039-0.031zM22.905 13.781c0.859 0.708 1.63 1.441 2.348 2.225l0.015 0.017c-0.733 0.801-1.505 1.534-2.325 2.21l-0.039 0.031c0.050-0.671 0.079-1.453 0.079-2.242s-0.029-1.571-0.085-2.345l0.006 0.104zM12.043 14.306v4.075l3.512 2.167v-4.075l-3.512-2.167zM20.234 14.308l-3.511 2.167v4.073l3.511-2.167v-4.073zM6.091 16.923c0.927 1.011 2.031 2.010 3.284 2.96 0.196 1.56 0.51 3.015 0.921 4.323-0.22 0.032-0.438 0.059-0.651 0.080-1.331 0.133-2.493 0.053-3.385-0.218s-1.503-0.711-1.853-1.318c-0.349-0.607-0.427-1.355-0.215-2.263s0.723-1.955 1.504-3.041c0.127-0.177 0.259-0.351 0.395-0.523zM26.030 16.923c0.138 0.175 0.27 0.349 0.395 0.523 0.781 1.087 1.292 2.133 1.504 3.041s0.135 1.657-0.215 2.263c-0.35 0.607-0.96 1.047-1.853 1.318s-2.053 0.351-3.385 0.218c-0.217-0.022-0.433-0.049-0.65-0.080 0.412-1.309 0.725-2.765 0.921-4.325 1.253-0.949 2.357-1.949 3.283-2.959zM21.425 20.829c-0.205 1.228-0.469 2.295-0.805 3.329l0.045-0.16c-1.225-0.272-2.269-0.59-3.278-0.979l0.155 0.053c1.51-0.74 2.782-1.486 3.993-2.313l-0.11 0.071zM10.698 20.829c1.102 0.757 2.373 1.503 3.697 2.159l0.185 0.083c-0.854 0.336-1.898 0.655-2.971 0.898l-0.152 0.029c-0.291-0.874-0.555-1.941-0.741-3.034l-0.019-0.134zM16.095 20.882l0.043 0.027 0.043-0.027h-0.085zM16.061 23.743c1.449 0.61 2.867 1.067 4.206 1.364-0.081 0.203-0.167 0.405-0.256 0.605-0.551 1.219-1.201 2.185-1.882 2.823-0.68 0.638-1.367 0.945-2.067 0.945s-1.387-0.307-2.068-0.945c-0.681-0.638-1.331-1.603-1.882-2.823-0.089-0.2-0.175-0.401-0.256-0.605 1.339-0.297 2.757-0.754 4.205-1.364z"></path>
</symbol>

  </defs>
</svg>
